<svg width="34" height="40" viewBox="0 0 34 40" fill="none" xmlns="http://www.w3.org/2000/svg">
<path d="M25.8555 8.43876H14.7688C13.9057 8.43876 13.2061 9.13837 13.2061 10.0015C13.2061 10.8646 13.9057 11.5642 14.7688 11.5642H25.8555C26.7186 11.5642 27.4183 10.8646 27.4183 10.0015C27.4183 9.13837 26.7186 8.43876 25.8555 8.43876Z" fill="#4E6996"/>
<path d="M25.8555 14.6896H14.7688C13.9057 14.6896 13.2061 15.3892 13.2061 16.2524C13.2061 17.1155 13.9057 17.8151 14.7688 17.8151H25.8555C26.7186 17.8151 27.4183 17.1155 27.4183 16.2524C27.4183 15.3892 26.7186 14.6896 25.8555 14.6896Z" fill="#4E6996"/>
<path d="M19.5351 20.9406H14.7688C13.9057 20.9406 13.2061 21.6402 13.2061 22.5033C13.2061 23.3664 13.9057 24.066 14.7688 24.066H19.5351C20.3982 24.066 21.0979 23.3664 21.0979 22.5033C21.0979 21.6402 20.3982 20.9406 19.5351 20.9406Z" fill="#4E6996"/>
<path d="M32.1932 21.2531C33.0563 21.2531 33.7559 20.5535 33.7559 19.6903V6.25094C33.7559 2.80414 30.9517 0 27.505 0H13.1279C9.68301 0 6.88012 2.80102 6.87692 6.24516C3.4302 6.24516 0.625977 9.0493 0.625977 12.4961V33.7492C0.625977 37.1959 3.43012 40.0001 6.87692 40.0001H22.0354C25.4821 40.0001 28.2863 37.196 28.2863 33.7492V33.7017C31.3655 33.3159 33.7558 30.6812 33.7558 27.4994C33.7558 26.6363 33.0562 25.9367 32.1931 25.9367C31.33 25.9367 30.6304 26.6363 30.6304 27.4994C30.6304 29.2224 29.2287 30.6245 27.5057 30.6249L13.1286 30.6284H13.1279C12.2931 30.6284 11.5083 30.3034 10.9181 29.7131C10.3276 29.1228 10.0024 28.3378 10.0024 27.5029V6.25094C10.0024 4.52758 11.4045 3.12547 13.1279 3.12547H27.5051C29.2284 3.12547 30.6305 4.52758 30.6305 6.25094V19.6904C30.6305 20.5535 31.3301 21.2531 32.1932 21.2531ZM13.1279 33.7537H13.1294L25.1608 33.7507C25.1599 35.4733 23.7582 36.8745 22.0354 36.8745H6.877C5.15364 36.8745 3.75153 35.4724 3.75153 33.749V12.4959C3.75153 10.7726 5.15364 9.37048 6.877 9.37048V27.5028C6.877 29.1728 7.52739 30.7428 8.70833 31.9234C9.88903 33.1039 11.4583 33.7537 13.1279 33.7537Z" fill="#4E6996"/>
</svg>
