<svg width="100" height="121" viewBox="0 0 100 121" fill="none" xmlns="http://www.w3.org/2000/svg">
<path d="M88.896 43.3131L75.6747 42.1361C75.7411 41.3905 75.7743 40.6206 75.7743 39.8485C75.7743 33.0127 73.0588 26.4569 68.2252 21.6233C63.3915 16.7896 56.8357 14.0741 50 14.0741C43.1642 14.0741 36.6084 16.7896 31.7748 21.6233C26.9411 26.4569 24.2256 33.0127 24.2256 39.8485C24.2256 40.6184 24.2588 41.3972 24.3252 42.1383L11.1039 43.3109C11.0022 42.1737 10.9513 41.01 10.9513 39.8485C10.9513 18.3175 28.469 0.799805 50 0.799805C71.5309 0.799805 89.0486 18.3175 89.0486 39.8485C89.0486 41.0122 88.9977 42.1715 88.896 43.3131Z" fill="#FF1B4E"/>
<path d="M81.8097 52.2378H18.1903C8.14406 52.2378 0 60.3819 0 70.4281V102.632C0 112.678 8.14406 120.822 18.1903 120.822H81.8097C91.8559 120.822 100 112.678 100 102.632V70.4281C100 60.3819 91.8559 52.2378 81.8097 52.2378Z" fill="#FF1B4E"/>
</svg>
