<svg width="113" height="128" viewBox="0 0 113 128" fill="none" xmlns="http://www.w3.org/2000/svg">
<path d="M109.234 53.1446L59.3114 3.21523C56.3672 0.278226 51.6044 0.312976 48.6987 3.21148C45.7764 6.14124 45.7764 10.8982 48.6987 13.8243L98.628 63.7501C101.553 66.6751 106.308 66.6751 109.234 63.7501C112.167 60.8171 112.167 56.0771 109.234 53.1446Z" fill="#FF1B4E"/>
<path d="M44.9949 20.7263L44.6191 22.6098C41.9724 35.8493 35.5399 48.4271 26.8396 58.6214L54.0014 85.7832C64.1944 77.0847 76.599 70.4794 89.839 67.8294L91.726 67.4537L44.9949 20.7263Z" fill="#FF1B4E"/>
<path d="M21.8598 64.2473L3.29654 82.8068C-1.08972 87.1931 -1.10797 94.3141 3.29654 98.7186L13.9021 109.324C18.2883 113.71 25.4093 113.728 29.8138 109.324L48.3754 90.7626L21.8598 64.2473ZM24.5113 93.4161C23.0466 94.8809 20.6733 94.8809 19.2086 93.4161C17.7438 91.9514 17.7438 89.5781 19.2086 88.1134L24.5113 82.8106C25.9761 81.3458 28.3493 81.3458 29.8141 82.8106C31.2788 84.2754 31.2788 86.6486 29.8141 88.1134L24.5113 93.4161Z" fill="#FF1B4E"/>
<path d="M64.0327 111.32L69.1339 106.218C73.5387 101.814 73.5242 94.6934 69.1342 90.3107L65.3452 86.5189C63.2509 87.9257 61.2509 89.4542 59.3064 91.0852L63.8314 95.6169C65.2927 97.0707 65.3029 99.4367 63.8314 100.916L58.6459 106.101L51.0254 98.7182L40.4194 109.324L57.4337 125.811C60.3372 128.722 65.1044 128.739 68.0354 125.807C70.9614 122.881 70.9614 118.124 68.0354 115.198L64.0327 111.32Z" fill="#FF1B4E"/>
<path d="M79.1822 0C77.1094 0 75.4322 1.67725 75.4322 3.75001V11.25C75.4322 13.3228 77.1094 15 79.1822 15C81.255 15 82.9322 13.3228 82.9322 11.25V3.75001C82.9322 1.67725 81.255 0 79.1822 0Z" fill="#FF1B4E"/>
<path d="M109.182 30H101.682C99.6095 30 97.9323 31.6773 97.9323 33.75C97.9323 35.8228 99.6095 37.5 101.682 37.5H109.182C111.255 37.5 112.932 35.8228 112.932 33.75C112.932 31.6773 111.255 30 109.182 30Z" fill="#FF1B4E"/>
<path d="M104.333 8.59856C102.869 7.13381 100.495 7.13381 99.0307 8.59856L91.5307 16.0986C90.066 17.5633 90.066 19.9366 91.5307 21.4013C92.9955 22.8661 95.3687 22.8663 96.8335 21.4013L104.333 13.9013C105.798 12.4366 105.798 10.0633 104.333 8.59856Z" fill="#FF1B4E"/>
</svg>
