<svg width="129" height="129" viewBox="0 0 129 129" fill="none" xmlns="http://www.w3.org/2000/svg">
<path d="M64.5 0C28.8779 0 0 28.8779 0 64.5C0 100.122 28.8779 129 64.5 129C100.122 129 129 100.122 129 64.5C129 28.8779 100.122 0 64.5 0ZM103.831 43.1358L97.5044 49.4626L70.0674 76.8971L52.7165 94.2479C51.6444 95.288 50.2094 95.8696 48.7157 95.8696C47.2221 95.8696 45.7871 95.288 44.715 94.2479C43.8986 93.4332 43.083 92.6176 42.2682 91.8012L25.1688 74.7018C22.9333 72.4663 23.0943 68.9584 25.1688 66.7003C27.2434 64.4422 31.0757 64.6056 33.1704 66.7003L35.6171 69.147L48.7233 82.2532L78.4838 52.4801L95.8347 35.1292C98.0702 32.8937 101.578 33.0547 103.836 35.1292C106.094 37.2038 105.926 41.0411 103.831 43.1358Z" fill="#FF1B4E"/>
</svg>
